<svg xmlns="http://www.w3.org/2000/svg" width="1200" height="1200" viewBox="0 0 1200 1200" role="img" aria-labelledby="title desc">
  <title id="title">Mwen pa kache ankò enamel pin</title>
  <desc id="desc">Illustrated gold enamel pin with a brain, roots, and a lightbulb motif.</desc>
  <defs>
    <linearGradient id="bg" x1="0" y1="0" x2="1" y2="1">
      <stop offset="0%" stop-color="#0f0f1a"/>
      <stop offset="100%" stop-color="#191933"/>
    </linearGradient>
    <linearGradient id="gold" x1="0" y1="0" x2="1" y2="1">
      <stop offset="0%" stop-color="#f6cf68"/>
      <stop offset="100%" stop-color="#b4781f"/>
    </linearGradient>
  </defs>
  <rect width="1200" height="1200" fill="url(#bg)"/>
  <circle cx="600" cy="540" r="360" fill="#111326" stroke="url(#gold)" stroke-width="30"/>
  <path d="M470 830c50-80 150-135 260-135" fill="none" stroke="url(#gold)" stroke-width="28" stroke-linecap="round"/>
  <path d="M520 410c-28 20-44 52-44 86 0 60 50 108 112 108s112-48 112-108c0-34-16-66-44-86" fill="none" stroke="url(#gold)" stroke-width="28" stroke-linecap="round"/>
  <path d="M558 602v70m84-70v70" stroke="url(#gold)" stroke-width="24" stroke-linecap="round"/>
  <path d="M560 325h80m-40-42v84" stroke="url(#gold)" stroke-width="20" stroke-linecap="round"/>
  <text x="600" y="1010" text-anchor="middle" font-size="58" fill="#f2f2f2" font-family="'Segoe UI', Arial, sans-serif">Mwen pa kache ankò</text>
</svg>
